# xmcd
#
# Track frame offsets: 
#        150
#        16725
#        36302
#        59595
#        85450
#        99837
#        121060
#        146472
#        169067
#        190585
#        219152
#        243497
#        267925
#        293502
#        306652
#
# Disc length: 4433 seconds
#
# Revision: 2
# Processed by: cddbd v1.5.2PL0 Copyright (c) Steve Scherf et al.
# Submitted via: ExactAudioCopy v1.0b5
#
DISCID=cc114f0f
DTITLE=Date Of Birth - King Of Waltz
DYEAR=1994
DGENRE=New Wave
TTITLE0=Pack My Bag
TTITLE1=思い出の瞳
TTITLE2=King Of Waltz
TTITLE3=虹のつり橋
TTITLE4=Okay!
TTITLE5=Welcome To Neverland
TTITLE6=Daisy Chain
TTITLE7=You Are My Secret
TTITLE8=Fade To Grey
TTITLE9=Time After Time
TTITLE10=Cowboy Pop
TTITLE11=Love Is All
TTITLE12=The Evening News
TTITLE13=Cookie Girl
TTITLE14=Echoes Of Love
EXTD=
EXTT0=
EXTT1=
EXTT2=
EXTT3=
EXTT4=
EXTT5=
EXTT6=
EXTT7=
EXTT8=
EXTT9=
EXTT10=
EXTT11=
EXTT12=
EXTT13=
EXTT14=
PLAYORDER=
